<svg id="Layer_1" xmlns="http://www.w3.org/2000/svg" viewBox="0 0 4793.8 1613.7"><style>.st0{fill:#2c56dd}</style><g id="Consensys"><g id="main-Logo"><path id="_Path_" class="st0" d="M793.8 1271.8c-.9 0-1.5.7-1.5 1.6 0 .9.7 1.5 1.6 1.5.8 0 1.5-.7 1.5-1.5 0-.9-.7-1.6-1.6-1.6z"/><path id="_Path_2" class="st0" d="M750.7 1256.8c-1.7 0-3.1 1.4-3.1 3v.1c0 1.7 1.4 3.1 3.1 3.1s3.1-1.4 3.1-3.1c0-1.7-1.4-3.1-3.1-3.1z"/><path id="_Path_3" class="st0" d="M709.2 1237.4c-2.6 0-4.7 2.1-4.7 4.7s2.1 4.7 4.7 4.7 4.7-2.1 4.7-4.7c-.1-2.6-2.2-4.7-4.7-4.7z"/><path id="_Path_4" class="st0" d="M669.8 1213.7c-3.4 0-6.2 2.8-6.2 6.3 0 3.4 2.8 6.2 6.3 6.2 3.4 0 6.2-2.8 6.2-6.2-.1-3.5-2.8-6.3-6.3-6.3z"/><path id="_Path_5" class="st0" d="M633 1186c-4.3 0-7.8 3.5-7.8 7.8s3.5 7.8 7.8 7.8 7.8-3.5 7.8-7.8c-.1-4.4-3.5-7.8-7.8-7.8z"/><path id="_Path_6" class="st0" d="M599.1 1154.5c-5.2 0-9.3 4.2-9.3 9.4s4.2 9.3 9.4 9.3c5.1 0 9.3-4.2 9.3-9.3-.1-5.2-4.2-9.4-9.4-9.4z"/><path id="_Path_7" class="st0" d="M568.5 1119.6c-6 0-10.9 4.9-10.9 10.9s4.9 10.9 10.9 10.9 10.9-4.9 10.9-10.9-4.8-10.9-10.9-10.9z"/><path id="_Path_8" class="st0" d="M541.7 1081.7c-6.9 0-12.5 5.6-12.5 12.5s5.6 12.5 12.5 12.5 12.5-5.6 12.5-12.5c0-7-5.6-12.5-12.5-12.5z"/><path id="_Path_9" class="st0" d="M533.7 1054.6c0-7.7-6.3-14-14-14s-14 6.3-14 14 6.3 14 14 14c7.8 0 14-6.2 14-14z"/><path id="_Path_10" class="st0" d="M518.7 1012.6c0-8.6-7-15.6-15.6-15.6s-15.6 7-15.6 15.6 7 15.6 15.6 15.6 15.6-7 15.6-15.6z"/><path id="_Path_11" class="st0" d="M509.3 968.8c0-9.5-7.7-17.1-17.1-17.1-9.5 0-17.1 7.7-17.1 17.1 0 9.5 7.7 17.1 17.1 17.1 9.5 0 17.1-7.7 17.1-17.1z"/><path id="_Path_12" class="st0" d="M505.8 923.9c0-10.3-8.3-18.7-18.6-18.7s-18.7 8.3-18.7 18.6 8.3 18.7 18.6 18.7c10.3.1 18.7-8.3 18.7-18.6z"/><path id="_Path_13" class="st0" d="M488 898.9c11.2 0 20.2-9.1 20.2-20.3 0-11.2-9.1-20.2-20.3-20.2-11.2 0-20.2 9.1-20.2 20.2 0 11.3 9 20.3 20.3 20.3-.1 0-.1 0 0 0z"/><path id="_Path_14" class="st0" d="M472.9 834c0 12 9.8 21.8 21.8 21.8s21.8-9.8 21.8-21.8-9.8-21.8-21.8-21.8-21.8 9.7-21.8 21.8z"/><path id="_Path_15" class="st0" d="M1126.9 1167.7c-.8 0-1.4.6-1.4 1.4s.6 1.4 1.4 1.4c.8 0 1.4-.6 1.4-1.4 0-.7-.7-1.3-1.4-1.4z"/><path id="_Path_16" class="st0" d="M1086.9 1187.4c-1.5 0-2.8 1.2-2.8 2.7 0 1.5 1.2 2.8 2.8 2.8 1.5 0 2.8-1.2 2.8-2.8-.1-1.5-1.3-2.7-2.8-2.7z"/><path id="_Path_17" class="st0" d="M1044.9 1202.7c-2.3 0-4.1 1.8-4.1 4.1s1.8 4.1 4.1 4.1 4.1-1.8 4.1-4.1-1.8-4.1-4.1-4.1z"/><path id="_Path_18" class="st0" d="M1001.4 1213.5c-3 0-5.5 2.5-5.5 5.5s2.5 5.5 5.5 5.5 5.5-2.5 5.5-5.5-2.5-5.5-5.5-5.5z"/><path id="_Path_19" class="st0" d="M956.8 1219.7c-3.8 0-6.9 3-7 6.8s3 6.9 6.8 7c3.8 0 6.9-3 7-6.8v-.1c0-3.8-3-6.9-6.8-6.9z"/><path id="_Path_20" class="st0" d="M911.7 1221.1c-4.6 0-8.3 3.7-8.3 8.3 0 4.6 3.7 8.3 8.3 8.3 4.6 0 8.2-3.7 8.3-8.2 0-4.7-3.6-8.4-8.3-8.4.1 0 .1 0 0 0z"/><path id="_Path_21" class="st0" d="M866.6 1217.8c-5.3 0-9.6 4.3-9.6 9.7s4.3 9.6 9.7 9.6c5.3 0 9.6-4.3 9.6-9.6-.1-5.4-4.4-9.7-9.7-9.7z"/><path id="_Path_22" class="st0" d="M821.9 1209.6c-6.1 0-11 4.9-11 11s4.9 11 11 11 11-4.9 11-11c0-6-4.9-11-11-11z"/><path id="_Path_23" class="st0" d="M778.4 1195.9c-6.8 0-12.4 5.6-12.3 12.4s5.6 12.4 12.4 12.3c6.8 0 12.4-5.6 12.3-12.4 0-6.8-5.6-12.3-12.4-12.3z"/><path id="_Path_24" class="st0" d="M737 1176.5c-7.6 0-13.8 6.1-13.8 13.7s6.1 13.8 13.7 13.8 13.8-6.1 13.8-13.7-6.1-13.8-13.7-13.8z"/><path id="_Path_25" class="st0" d="M713.4 1167c0-8.4-6.8-15.1-15.1-15.2s-15.1 6.8-15.2 15.1c0 8.4 6.8 15.1 15.1 15.2 8.4 0 15.2-6.7 15.2-15.1z"/><path id="_Path_26" class="st0" d="M662.9 1122.4c-9.1 0-16.5 7.4-16.5 16.5s7.4 16.5 16.5 16.5 16.5-7.4 16.5-16.5-7.4-16.5-16.5-16.5z"/><path id="_Path_27" class="st0" d="M631.6 1088.4c-9.9 0-17.9 8-17.9 17.9 0 9.9 8 17.9 17.9 17.9s17.9-8 17.9-17.9c-.1-9.9-8.1-17.9-17.9-17.9z"/><path id="_Path_28" class="st0" d="M604.7 1089.2c10.6 0 19.3-8.6 19.3-19.2s-8.6-19.3-19.2-19.3-19.3 8.6-19.3 19.2c-.1 10.7 8.5 19.3 19.2 19.3z"/><path id="_Path_29" class="st0" d="M603.4 1030.5c0-11.4-9.2-20.6-20.6-20.6-11.4 0-20.6 9.2-20.6 20.6 0 11.4 9.2 20.6 20.6 20.6 11.4 0 20.6-9.2 20.6-20.6z"/><path id="_Path_30" class="st0" d="M1288.7 858.7c-.7 0-1.2.5-1.3 1.2 0 .7.6 1.2 1.3 1.3.7 0 1.2-.6 1.2-1.3 0-.7-.5-1.2-1.2-1.2z"/><path id="_Path_31" class="st0" d="M1275.3 900.6c-1.4 0-2.5 1.1-2.5 2.4 0 1.4 1.1 2.5 2.4 2.5s2.5-1.1 2.5-2.4c0-1.4-1.1-2.5-2.4-2.5z"/><path id="_Path_32" class="st0" d="M1257.3 940.8c-2 0-3.7 1.7-3.7 3.7s1.7 3.7 3.7 3.7 3.7-1.7 3.7-3.7c.1-2-1.6-3.7-3.7-3.7.1 0 0 0 0 0z"/><path id="_Path_33" class="st0" d="M1235.2 979c-2.7 0-4.9 2.2-4.9 4.9s2.2 4.9 4.9 4.9 4.9-2.2 4.9-4.9-2.2-4.9-4.9-4.9z"/><path id="_Path_34" class="st0" d="M1209 1014.6c-3.4 0-6.2 2.8-6.1 6.2 0 3.4 2.8 6.2 6.2 6.1 3.4 0 6.1-2.7 6.1-6.1 0-3.4-2.7-6.2-6.2-6.2z"/><path id="_Path_35" class="st0" d="M1179.1 1047.2c-4.1 0-7.4 3.3-7.4 7.4 0 4.1 3.3 7.4 7.4 7.4 4.1 0 7.4-3.3 7.4-7.4 0-4-3.3-7.4-7.4-7.4z"/><path id="_Path_36" class="st0" d="M1145.8 1076.6c-4.8 0-8.6 3.9-8.6 8.6 0 4.8 3.9 8.6 8.6 8.6s8.6-3.9 8.6-8.6c.1-4.8-3.8-8.6-8.6-8.6.1 0 0 0 0 0z"/><path id="_Path_37" class="st0" d="M1109.5 1102.1c-5.4 0-9.9 4.4-9.9 9.8s4.4 9.9 9.8 9.9 9.9-4.4 9.9-9.8-4.4-9.8-9.8-9.9z"/><path id="_Path_38" class="st0" d="M1070 1122.9c-6.1 0-11.1 4.9-11.1 11.1s4.9 11.1 11.1 11.1c6.1 0 11.1-4.9 11.1-11.1-.1-6.1-5-11.1-11.1-11.1z"/><path id="_Path_39" class="st0" d="M1027.9 1138.3c-6.8 0-12.4 5.5-12.4 12.3 0 6.8 5.5 12.4 12.3 12.4s12.4-5.5 12.4-12.3v-.1c0-6.8-5.5-12.3-12.3-12.3z"/><path id="_Path_40" class="st0" d="M984.1 1148c-7.5 0-13.6 6-13.6 13.5s6 13.6 13.5 13.6 13.6-6 13.6-13.5c0-7.6-6-13.6-13.5-13.6z"/><path id="_Path_41" class="st0" d="M939.2 1151.8c-8.2 0-14.8 6.6-14.8 14.8 0 8.2 6.6 14.8 14.8 14.8 8.1 0 14.8-6.6 14.8-14.7 0-8.3-6.6-14.9-14.8-14.9z"/><path id="_Path_42" class="st0" d="M910 1165.8c0-8.8-7.2-16-16-16s-16 7.2-16 16 7.1 16 16 16c8.8 0 16-7.2 16-16z"/><path id="_Path_43" class="st0" d="M866.6 1159.1c0-9.5-7.7-17.2-17.2-17.3-9.5 0-17.2 7.7-17.3 17.2 0 9.5 7.7 17.2 17.2 17.3 9.6 0 17.3-7.7 17.3-17.2z"/><path id="_Path_44" class="st0" d="M824.4 1146.6c0-10.2-8.3-18.5-18.5-18.5s-18.5 8.3-18.5 18.5 8.3 18.5 18.5 18.5 18.5-8.3 18.5-18.5z"/><path id="_Path_45" class="st0" d="M784.2 1128.5c0-10.9-8.8-19.7-19.7-19.7s-19.7 8.8-19.7 19.7c0 10.9 8.8 19.7 19.7 19.7 10.9 0 19.7-8.8 19.7-19.7 0 .1 0 0 0 0z"/><path id="_Path_46" class="st0" d="M1184.4 528.1c.7 0 1.2-.5 1.3-1.2 0-.7-.5-1.2-1.2-1.3h-.1c-.7 0-1.2.6-1.2 1.2 0 .7.6 1.3 1.2 1.3z"/><path id="_Path_47" class="st0" d="M1205.5 569.3c1.4 0 2.5-1.1 2.5-2.5s-1.1-2.5-2.5-2.5-2.5 1.1-2.5 2.5 1.1 2.5 2.5 2.5c-.1 0 0 0 0 0z"/><path id="_Path_48" class="st0" d="M1222.1 612.5c2 0 3.7-1.6 3.7-3.7 0-2-1.6-3.7-3.7-3.7-2 0-3.7 1.6-3.7 3.7.1 2.1 1.7 3.7 3.7 3.7z"/><path id="_Path_49" class="st0" d="M1234.4 657.3c2.7 0 4.9-2.2 4.9-4.9s-2.2-4.9-4.9-4.9-4.9 2.2-4.9 4.9c-.1 2.7 2.1 4.9 4.9 4.9-.1 0-.1 0 0 0z"/><path id="_Path_50" class="st0" d="M1235.7 696.9c0 3.4 2.8 6.1 6.2 6.1 3.4 0 6.1-2.8 6.1-6.2 0-3.4-2.8-6.1-6.2-6.1-3.3.1-6.1 2.8-6.1 6.2z"/><path id="_Path_51" class="st0" d="M1244.7 734.6c-4.1 0-7.4 3.3-7.4 7.4 0 4.1 3.3 7.4 7.4 7.4 4.1 0 7.3-3.3 7.4-7.4 0-4.1-3.3-7.4-7.4-7.4z"/><path id="_Path_52" class="st0" d="M1242.7 778.5c-4.8 0-8.6 3.9-8.6 8.6 0 4.8 3.9 8.6 8.6 8.6 4.8 0 8.6-3.9 8.6-8.6.1-4.7-3.8-8.6-8.6-8.6z"/><path id="_Path_53" class="st0" d="M1236 822c-5.4 0-9.8 4.4-9.8 9.9 0 5.4 4.4 9.8 9.9 9.8 5.4 0 9.8-4.4 9.8-9.8 0-5.5-4.4-9.9-9.9-9.9z"/><path id="_Path_54" class="st0" d="M1234.7 875.3c0-6.1-5-11.1-11.1-11.1s-11.1 5-11.1 11.1 5 11.1 11.1 11.1 11.1-4.9 11.1-11.1c0 .1 0 0 0 0z"/><path id="_Path_55" class="st0" d="M1205.6 904.5c-6.8 0-12.3 5.5-12.3 12.3 0 6.8 5.5 12.3 12.3 12.3s12.3-5.5 12.3-12.3c0-6.8-5.5-12.3-12.3-12.3z"/><path id="_Path_56" class="st0" d="M1182.3 942c-7.5 0-13.5 6.1-13.5 13.5 0 7.5 6.1 13.5 13.5 13.5 7.5 0 13.5-6.1 13.5-13.5.1-7.5-6-13.5-13.5-13.5z"/><path id="_Path_57" class="st0" d="M1154.2 976.1c-8.2 0-14.8 6.6-14.8 14.8 0 8.2 6.6 14.8 14.8 14.8 8.2 0 14.8-6.6 14.8-14.8-.1-8.2-6.7-14.8-14.8-14.8z"/><path id="_Path_58" class="st0" d="M1121.6 1006.2c-8.8 0-16 7.2-16 16s7.2 16 16 16 16-7.2 16-16c.1-8.9-7.1-16-16-16 .1 0 0 0 0 0z"/><path id="_Path_59" class="st0" d="M1085.3 1031.8c-9.5 0-17.2 7.7-17.2 17.2s7.7 17.2 17.2 17.2 17.2-7.7 17.2-17.2c.1-9.5-7.6-17.2-17.2-17.2z"/><path id="_Path_60" class="st0" d="M1045.8 1052.4c-10.2 0-18.5 8.3-18.5 18.5s8.3 18.5 18.5 18.5 18.5-8.3 18.5-18.5-8.3-18.5-18.5-18.5z"/><path id="_Path_61" class="st0" d="M1003.7 1067.8c-10.9 0-19.7 8.8-19.7 19.7s8.8 19.7 19.7 19.7c10.9 0 19.7-8.8 19.7-19.7.1-10.9-8.8-19.7-19.7-19.7z"/><path id="_Path_62" class="st0" d="M875.2 366.3c.7 0 1.2-.6 1.2-1.2 0-.7-.6-1.2-1.3-1.2-.7 0-1.2.5-1.2 1.2.1.6.6 1.2 1.3 1.2z"/><path id="_Path_63" class="st0" d="M918.4 380.9c1.4 0 2.5-1.1 2.4-2.5 0-1.4-1.1-2.5-2.5-2.4-1.3 0-2.4 1.1-2.4 2.5 0 1.3 1.1 2.4 2.5 2.4z"/><path id="_Path_64" class="st0" d="M959.9 400c2 0 3.7-1.7 3.7-3.7s-1.7-3.7-3.7-3.7-3.7 1.7-3.7 3.7c0 2.1 1.6 3.8 3.7 3.7z"/><path id="_Path_65" class="st0" d="M999.3 423.4c2.7 0 4.9-2.2 4.9-4.9s-2.2-4.9-4.9-4.9-4.9 2.2-4.9 4.9c-.1 2.7 2.1 4.9 4.9 4.9-.1 0 0 0 0 0z"/><path id="_Path_66" class="st0" d="M1036.1 450.8c3.4 0 6.1-2.8 6.1-6.2s-2.8-6.1-6.2-6.1c-3.4 0-6.1 2.8-6.1 6.1 0 3.4 2.8 6.2 6.2 6.2z"/><path id="_Path_67" class="st0" d="M1069.9 482c4.1 0 7.4-3.3 7.4-7.4s-3.3-7.4-7.4-7.4c-4.1 0-7.4 3.3-7.4 7.4.1 4 3.4 7.4 7.4 7.4z"/><path id="_Path_68" class="st0" d="M1100.5 516.5c4.8 0 8.6-3.9 8.6-8.7 0-4.8-3.9-8.6-8.7-8.6s-8.6 3.9-8.6 8.7c.1 4.8 4 8.6 8.7 8.6z"/><path id="_Path_69" class="st0" d="M1127.3 554.1c5.4 0 9.9-4.4 9.9-9.9 0-5.4-4.4-9.9-9.9-9.9-5.4 0-9.8 4.4-9.9 9.9.1 5.5 4.5 9.9 9.9 9.9z"/><path id="_Path_70" class="st0" d="M1149.3 594.8c6.1 0 11.1-5 11-11.1s-5-11.1-11.1-11c-6.1 0-11 5-11 11.1s5 11 11.1 11z"/><path id="_Path_71" class="st0" d="M1153.6 625.8c0 6.8 5.5 12.3 12.3 12.4 6.8 0 12.3-5.5 12.4-12.3 0-6.8-5.5-12.3-12.3-12.4-6.9 0-12.4 5.4-12.4 12.3 0-.1 0 0 0 0z"/><path id="_Path_72" class="st0" d="M1163.3 669.6c0 7.5 6.1 13.5 13.6 13.5s13.5-6.1 13.5-13.6-6.1-13.5-13.5-13.5c-7.5 0-13.6 6.1-13.6 13.6z"/><path id="_Path_73" class="st0" d="M1167.1 714.5c0 8.2 6.6 14.8 14.8 14.8 8.2 0 14.8-6.6 14.8-14.8 0-8.2-6.6-14.8-14.8-14.8-8.2 0-14.8 6.7-14.8 14.8z"/><path id="_Path_74" class="st0" d="M1197.1 759.7c0-8.8-7.1-16-16-16s-16 7.1-16 16c0 8.8 7.1 16 16 16 8.8 0 15.9-7.1 16-16 0 .1 0 0 0 0z"/><path id="_Path_75" class="st0" d="M1191.6 804.4c0-9.5-7.7-17.2-17.3-17.2s-17.2 7.7-17.2 17.3c0 9.5 7.7 17.2 17.3 17.2 9.5-.1 17.2-7.8 17.2-17.3z"/><path id="_Path_76" class="st0" d="M1180.4 847.8c0-10.2-8.3-18.5-18.5-18.5s-18.5 8.3-18.5 18.5 8.3 18.5 18.5 18.5 18.5-8.3 18.5-18.5z"/><path id="_Path_77" class="st0" d="M1143.9 869.5c-10.9 0-19.7 8.9-19.7 19.8s8.9 19.7 19.8 19.7 19.7-8.8 19.7-19.7c-.1-11-8.9-19.8-19.8-19.8z"/><path id="_Path_78" class="st0" d="M542.2 470.5c.7 0 1.2-.5 1.2-1.2s-.5-1.2-1.2-1.3c-.7 0-1.2.5-1.3 1.2v.1c0 .6.6 1.2 1.3 1.2z"/><path id="_Path_79" class="st0" d="M582.2 450.7c1.4 0 2.4-1.1 2.4-2.5s-1.1-2.4-2.5-2.4-2.4 1.1-2.4 2.5c0 1.3 1.1 2.4 2.5 2.4z"/><path id="_Path_80" class="st0" d="M624.1 435.3c2 0 3.7-1.6 3.7-3.7s-1.6-3.7-3.7-3.7c-2 0-3.7 1.6-3.7 3.7v.1c.1 1.9 1.7 3.6 3.7 3.6z"/><path id="_Path_81" class="st0" d="M667.7 424.3c2.7 0 4.9-2.2 4.9-4.9s-2.2-4.9-4.9-4.9-4.9 2.2-4.9 4.9c-.1 2.7 2.1 4.9 4.9 4.9-.1 0-.1 0 0 0z"/><path id="_Path_82" class="st0" d="M712.2 418c3.4 0 6.1-2.8 6.1-6.2s-2.8-6.1-6.2-6.1c-3.4 0-6.1 2.8-6.1 6.1 0 3.4 2.8 6.2 6.2 6.2z"/><path id="_Path_83" class="st0" d="M757.3 416.4c4.1 0 7.4-3.3 7.4-7.4 0-4.1-3.3-7.4-7.4-7.4-4.1 0-7.4 3.3-7.4 7.4 0 4.1 3.3 7.4 7.4 7.4z"/><path id="_Path_84" class="st0" d="M802.5 419.6c4.8 0 8.6-3.8 8.6-8.6s-3.8-8.6-8.6-8.6-8.6 3.8-8.6 8.6c0 4.7 3.8 8.6 8.6 8.6z"/><path id="_Path_85" class="st0" d="M847.1 427.6c5.4 0 9.9-4.4 9.9-9.8s-4.4-9.9-9.8-9.9-9.9 4.4-9.9 9.8c0 5.5 4.4 9.9 9.8 9.9z"/><path id="_Path_86" class="st0" d="M890.6 441.2c6.1 0 11.1-5 11.1-11.1s-5-11.1-11.1-11.1-11.1 4.9-11.1 11.1c.1 6.1 5 11.1 11.1 11.1z"/><path id="_Path_87" class="st0" d="M932.1 460.4c6.8 0 12.3-5.5 12.4-12.3 0-6.8-5.5-12.3-12.3-12.4-6.8 0-12.3 5.5-12.4 12.3 0 6.9 5.5 12.4 12.3 12.4z"/><path id="_Path_88" class="st0" d="M957.3 471.4c0 7.5 6 13.5 13.5 13.6 7.5 0 13.5-6 13.6-13.5 0-7.5-6-13.5-13.5-13.6-7.6-.1-13.6 6-13.6 13.5z"/><path id="_Path_89" class="st0" d="M1006.2 514.3c8.2 0 14.7-6.7 14.7-14.8s-6.7-14.7-14.8-14.7c-8.1 0-14.7 6.6-14.7 14.7-.1 8.2 6.6 14.8 14.8 14.8-.1 0-.1 0 0 0z"/><path id="_Path_90" class="st0" d="M1037.5 548.1c8.8 0 16-7.2 16-16s-7.2-16-16-16-16 7.2-16 16 7.2 16 16 16z"/><path id="_Path_91" class="st0" d="M1064.3 551.1c-9.5 0-17.2 7.7-17.2 17.2s7.7 17.2 17.2 17.2 17.2-7.7 17.2-17.2c.1-9.4-7.6-17.2-17.2-17.2z"/><path id="_Path_92" class="st0" d="M1067.8 607.9c0 10.2 8.3 18.4 18.5 18.4s18.4-8.3 18.4-18.5-8.3-18.4-18.5-18.4c-10.2.1-18.4 8.3-18.4 18.5z"/><path id="_Path_93" class="st0" d="M1083.1 649.9c0 10.9 8.8 19.7 19.7 19.7 10.9 0 19.7-8.8 19.7-19.7 0-10.9-8.8-19.7-19.7-19.7-10.9.1-19.7 8.9-19.7 19.7z"/><path id="_Path_94" class="st0" d="M1113.6 672.8c-11.6 0-20.9 9.4-20.9 20.9 0 11.6 9.4 20.9 20.9 20.9 11.6 0 20.9-9.4 20.9-20.9.1-11.5-9.3-20.9-20.9-20.9z"/><path id="_Path_95" class="st0" d="M380.3 776.2c-1.3 0-2.3 1-2.4 2.3 0 1.3 1 2.3 2.3 2.4h.1c1.3 0 2.3-1.1 2.3-2.4 0-1.3-1-2.3-2.3-2.3z"/><path id="_Path_96" class="st0" d="M393.8 730.7c-2.6 0-4.7 2.1-4.7 4.6 0 2.6 2.1 4.7 4.6 4.7 2.6 0 4.7-2.1 4.7-4.6 0-2.6-2-4.7-4.6-4.7z"/><path id="_Path_97" class="st0" d="M418.7 693.9c0-3.9-3.1-7-7-7s-7 3.1-7 7 3.1 7 7 7c3.8-.1 6.9-3.2 7-7z"/><path id="_Path_98" class="st0" d="M433.8 663.8c5.1 0 9.3-4.2 9.3-9.3 0-5.1-4.2-9.3-9.3-9.3-5.1 0-9.3 4.2-9.3 9.3 0 5.1 4.2 9.2 9.3 9.3z"/><path id="_Path_99" class="st0" d="M460 629.3c6.4 0 11.6-5.2 11.6-11.6 0-6.4-5.2-11.6-11.6-11.6-6.4 0-11.6 5.2-11.6 11.6 0 6.3 5.2 11.5 11.6 11.6z"/><path id="_Path_100" class="st0" d="M489.9 597.7c7.7 0 13.9-6.2 13.9-13.9s-6.2-13.9-13.9-13.9-13.9 6.2-13.9 13.9c0 7.6 6.2 13.9 13.9 13.9z"/><path id="_Path_101" class="st0" d="M523.2 569.5c9 0 16.3-7.3 16.3-16.3s-7.3-16.3-16.3-16.3-16.3 7.3-16.3 16.3 7.3 16.3 16.3 16.3z"/><path id="_Path_102" class="st0" d="M559.5 545c10.3 0 18.6-8.3 18.6-18.5 0-10.3-8.3-18.6-18.5-18.6-10.3 0-18.6 8.3-18.6 18.5v.1c0 10.1 8.3 18.4 18.5 18.5z"/><path id="_Path_103" class="st0" d="M598.8 525c11.5 0 20.9-9.4 20.9-20.9 0-11.5-9.4-20.9-20.9-20.9-11.5 0-20.9 9.3-20.9 20.9 0 11.5 9.4 20.9 20.9 20.9z"/><path id="_Path_104" class="st0" d="M640.7 510.3c11.5 0 21.2-8.4 22.9-19.8 8 11.5 23.9 14.4 35.5 6.4 3.4-2.4 6.2-5.6 8.1-9.3 9.2 12.3 26.6 14.8 38.8 5.6 1.4-1.1 2.7-2.3 3.9-3.6 9.6 13.5 28.2 16.8 41.8 7.3 1.1 1.8 2.4 3.5 3.9 5-7.4.8-14.4 4-19.8 9.1-13.2-12-33.6-11.1-45.6 2.1-.8.9-1.6 1.8-2.3 2.8-5.3-4.2-12-6.5-18.8-6.5-11.9 0-22.7 6.9-27.7 17.7-13.1-8.9-31-5.5-39.9 7.6-2 3-3.4 6.3-4.2 9.7-12.7-7.8-29.3-3.7-37 9-2.6 4.2-3.9 9.1-3.9 14v.1c-12-6.9-27.4-2.8-34.3 9.2-2.2 3.8-3.4 8.2-3.4 12.6 0 2.4.3 4.7 1 7-3.6-2.3-7.9-3.5-12.2-3.5-12.9 0-23.4 10.5-23.4 23.4 0 12.9 10.5 23.4 23.4 23.4 12.9 0 23.4-10.4 23.4-23.3 0-2-.3-3.9-.8-5.8 11.6 7.6 27.2 4.3 34.8-7.3 2.5-3.8 3.9-8.3 4.1-12.9 4.3 2.7 9.3 4.2 14.4 4.2.5 0 1-.1 1.5-.1-5.8 5.3-9.4 12.6-10 20.5-16.1-3-31.5 7.5-34.6 23.6-.3 1.8-.5 3.6-.5 5.5 0 1.2.1 2.3.2 3.5-1.1-.1-2.2-.2-3.2-.2-15.5 0-28 12.5-28 28 0 3 .5 6 1.5 8.9-.6 0-1.1-.1-1.7-.1-14.6 0-26.4 11.7-26.5 26.3 0 4.9 1.4 9.8 3.9 14h-.8c-13.7 0-24.9 11.1-24.9 24.8 0 6.9 2.9 13.5 7.9 18.2-.4 0-.7-.1-1-.1-12.9 0-23.5 10.4-23.5 23.4 0 12.9 10.4 23.5 23.4 23.5 12.9 0 23.5-10.4 23.5-23.4 0-6.3-2.5-12.3-7-16.8.5 0 1.1.1 1.6.1 6.9 0 13.6-2.9 18.2-8v.9c0 6.2 2 12.2 5.6 17.1-14.3 5.1-21.7 20.8-16.7 35.1 1.6 4.5 4.4 8.6 8.1 11.7-13.1 6-18.9 21.5-12.9 34.6 2.4 5.3 6.5 9.6 11.6 12.3-12.2 6.2-17 21-10.9 33.2 3.3 6.6 9.4 11.3 16.6 12.9-11.5 5.8-16.1 19.8-10.3 31.3 4 7.9 12 12.8 20.9 12.8 1.4 0 2.9-.2 4.3-.4-11.4 3.8-17.5 16.1-13.8 27.5 3.8 11.4 16.1 17.5 27.5 13.8s17.5-16.1 13.8-27.5c-3-9-11.4-15-20.9-14.9-1.3 0-2.7.1-4 .4 9.8-3 16.5-12 16.5-22.2 0-.6-.1-1.1-.2-1.7 3.7 4 8.5 6.8 13.8 8.1-9.2 10.9-8 27.1 2.9 36.4 4.7 4 10.7 6.2 16.8 6.2h.6c-8 11-5.6 26.4 5.4 34.3 4.2 3.1 9.3 4.7 14.5 4.7 2.4 0 4.8-.4 7.2-1.1-7.1 10.8-4.2 25.3 6.6 32.4 3.8 2.5 8.3 3.9 12.9 3.9 5.3 0 10.4-1.8 14.5-5.2-8 9.3-6.9 23.3 2.3 31.2 9.3 8 23.3 6.9 31.2-2.3 7.4-8.6 7.1-21.5-.8-29.8 2.9-.1 5.8-.6 8.5-1.5v.3c0 10.2 5.7 19.5 14.8 24.1-1.3-.3-2.7-.4-4.1-.4-11.7-.1-21.3 9.3-21.4 21-.1 11.7 9.3 21.3 21 21.4 11.7.1 21.3-9.3 21.4-21 .1-7.8-4.2-15.1-11.1-18.8 2.1.5 4.3.8 6.5.8 5.1 0 10-1.4 14.3-4.1 1.2 14.2 13.6 24.8 27.8 23.6 6.3-.5 12.2-3.3 16.6-7.9 2.1 13.4 14.8 22.6 28.2 20.4 7.6-1.2 14.2-5.9 17.8-12.7 2.5 12.6 14.8 20.8 27.5 18.3 10-2 17.6-10.3 18.6-20.5.8 12.2 11.4 21.4 23.6 20.5 12.2-.8 21.4-11.4 20.5-23.6-.8-11.4-10.1-20.3-21.6-20.6 2-2.1 3.7-4.5 5-7.1 7.2 7.3 17.9 10 27.6 6.9-9.6 6.5-12.1 19.5-5.6 29.1 6.5 9.6 19.5 12.1 29.1 5.6s12.1-19.5 5.6-29.1c-3.9-5.8-10.4-9.2-17.3-9.2-2 0-4.1.3-6 1 6.3-3.8 10.7-9.9 12.4-17.1 4.7 4 10.6 6.1 16.7 6.1 14.3 0 25.9-11.6 25.9-25.9 0-.2-.1-.4-.1-.6 4.2 3.1 9.2 4.7 14.4 4.7 13.6 0 24.6-11 24.7-24.6 0-2.4-.3-4.8-1.1-7.1 10.7 7.2 25.2 4.4 32.4-6.3 5.7-8.5 5.2-19.8-1.2-27.7 4 3.5 9.1 5.4 14.4 5.4 12.2.1 22.2-9.8 22.3-22 .1-12.2-9.8-22.2-22-22.3h-.3c-5.7 0-11.2 2.2-15.3 6.2-.1-2.9-.6-5.8-1.4-8.6h.3c10.2 0 19.5-5.7 24.1-14.8-.3 1.3-.4 2.7-.4 4-.2 11.7 9.2 21.3 20.9 21.5s21.3-9.2 21.5-20.9c.2-11.7-9.2-21.3-20.9-21.5-7.9-.1-15.1 4.1-18.9 11 .5-2.1.8-4.3.8-6.5 0-5.1-1.4-10-4.1-14.3 14.2-1.2 24.8-13.6 23.6-27.8-.5-6.3-3.3-12.2-7.9-16.6 13.4-2.2 22.6-14.8 20.4-28.2-1.2-7.6-5.9-14.2-12.7-17.8 12.6-2.5 20.8-14.8 18.3-27.4-2-10-10.3-17.6-20.5-18.6 12.3-.8 21.6-11.4 20.9-23.7-.8-12.3-11.4-21.6-23.7-20.9-12.3.8-21.6 11.4-20.9 23.7.7 10.8 9 19.5 19.7 20.8-12.8.8-22.6 11.8-21.8 24.6.5 8 5.1 15.3 12.2 19.1-13.4 2.3-22.3 15-20 28.4.9 5 3.3 9.6 6.8 13.2-14.1 1.9-24 14.9-22.1 29 .5 3.4 1.6 6.7 3.3 9.6-14.4.8-25.6 12.6-25.7 27 0 2.7.4 5.3 1.2 7.8-.4-.1-.8-.1-1.2-.1-15.7 0-28.3 12.7-28.3 28.3 0 .7 0 1.4.1 2-1.5-.2-3-.4-4.5-.4-14.7 0-27.1 10.8-29.2 25.3-2.6-.7-5.3-1.1-8.1-1.1-12 0-22.8 7-27.9 17.8-11.5-9.4-28.5-7.7-37.9 3.9-1.5 1.9-2.8 3.9-3.7 6.1-10.1-11-27.2-11.8-38.3-1.6-2.2 2.1-4.1 4.5-5.6 7.2-9.4-11.7-26.5-13.6-38.2-4.2-1 .8-1.9 1.6-2.7 2.5-6.2-13.7-22.3-19.7-36-13.5-1.5.7-3 1.5-4.4 2.5-3.3-14.6-17.9-23.8-32.5-20.5-1.8.4-3.5 1-5.2 1.7-.4-15-12.9-26.7-27.9-26.3-1.2 0-2.4.2-3.6.3 3.4-14.6-5.7-29.2-20.3-32.6-1.9-.4-3.9-.7-5.8-.7 6-13.7-.3-29.6-14-35.6-1.2-.5-2.4-.9-3.6-1.3 9.1-11.9 6.9-28.9-4.9-38.1-.9-.7-1.9-1.4-3-2 11.9-9.1 14.2-26.2 5-38.1-1.1-1.4-2.3-2.7-3.6-3.9 7.1-3.6 12.3-10 14.2-17.7 1.9-7.6.4-15.7-4.2-22.2 14.6-3.3 23.8-17.8 20.5-32.4-.2-1.1-.6-2.1-.9-3.2 15 .8 27.7-10.8 28.5-25.7.1-1.8 0-3.6-.3-5.4 14.6 3.6 29.3-5.4 32.8-20 .3-1.3.5-2.6.7-3.9 13.3 7 29.7 1.9 36.7-11.4.6-1.1 1.1-2.2 1.5-3.3 5.7 5.2 13.3 7.7 20.9 6.9 8.3-.8 15.8-5.4 20.3-12.5 8.6 12.2 25.4 15.2 37.7 6.7 1.2-.9 2.4-1.8 3.5-2.9 5.5 13.9 21.3 20.7 35.2 15.1 1.7-.7 3.3-1.5 4.9-2.5 1.5 8 6.5 14.9 13.7 18.8h-.1c5.9 3.3 12.9 4.2 19.4 2.6.7 1 1.5 2 2.3 2.9.4 6 2.8 11.7 6.8 16.2.2.2.4.4.6.5 13.8 14.5 46 49.6 39.9 96.7-1.5 11.7 5.1 17.6 13.5 8.6 51-55 43-122.5 41.9-130.4-.3-5-1.4-10-3.3-14.6.6-2.9.9-5.9.9-8.8 0-13.7-6.4-26.5-17.3-34.8.5-2.6.8-5.2.8-7.9 0-17.1-10.4-32.4-26.2-38.8-.4-19.4-14.6-35.7-33.8-38.7-3.3-18.1-19.1-31.2-37.4-31.2-.7 0-1.3.1-2 .1-4.8-14.9-18.7-24.9-34.3-24.9-3.1 0-6.1.4-9.1 1.2-7.8-17.2-28.1-24.7-45.2-16.9-.3.1-.6.3-.9.4-9-15.4-28.8-20.5-44.2-11.5-1.3.8-2.5 1.6-3.7 2.5-9.7-13.5-28.5-16.6-42-6.8-2.2 1.6-4.2 3.5-5.9 5.6-9.7-11.9-27.2-13.8-39.1-4.1-3.4 2.7-6.1 6.2-7.9 10.2-9.1-10.8-25.2-12.2-36-3.1-5 4.2-8.2 10.2-8.9 16.7-7.8-10.2-22.3-12.2-32.5-4.4-10.2 7.8-12.2 22.3-4.4 32.5 4.3 5.9 11.2 9.3 18.4 9.3z"/><path id="_Path_105" class="st0" d="M484.6 1109.8c-1 0-1.8.8-1.8 1.8s.8 1.8 1.8 1.8 1.8-.8 1.8-1.8-.8-1.8-1.8-1.8z"/><path id="_Path_106" class="st0" d="M463.6 1068c-2 0-3.6 1.6-3.6 3.6s1.6 3.6 3.6 3.6 3.6-1.6 3.6-3.6-1.6-3.6-3.6-3.6z"/><path id="_Path_107" class="st0" d="M446.9 1024.2c-3 0-5.4 2.4-5.4 5.4 0 3 2.4 5.4 5.4 5.4 3 0 5.4-2.4 5.4-5.4 0-3-2.4-5.4-5.4-5.4z"/><path id="_Path_108" class="st0" d="M434.7 978.9c-4 0-7.2 3.2-7.2 7.2s3.2 7.2 7.2 7.2 7.2-3.2 7.2-7.2-3.2-7.2-7.2-7.2z"/><path id="_Path_109" class="st0" d="M436.1 941.5c0-5-4-9-9-9s-9 4-9 9 4 9 9 9 9-4 9-9z"/><path id="_Path_110" class="st0" d="M435.2 896.4c0-6-4.9-10.8-10.8-10.8-6 0-10.8 4.9-10.8 10.8 0 6 4.8 10.8 10.8 10.8 5.9 0 10.8-4.8 10.8-10.8z"/><path id="_Path_111" class="st0" d="M413.7 851.3c0 6.9 5.6 12.6 12.6 12.6s12.6-5.6 12.6-12.6c0-6.9-5.6-12.6-12.6-12.6-6.9 0-12.5 5.6-12.6 12.6 0-.1 0-.1 0 0z"/><path id="_Path_112" class="st0" d="M433.1 820.9c7.9 0 14.4-6.5 14.4-14.4s-6.5-14.4-14.4-14.4-14.4 6.4-14.4 14.4 6.4 14.4 14.4 14.4z"/><path id="_Path_113" class="st0" d="M445.5 746.9c-8.9 0-16.2 7.2-16.2 16.2 0 8.9 7.2 16.2 16.2 16.2s16.2-7.2 16.2-16.2c-.1-8.9-7.3-16.2-16.2-16.2z"/><path id="_Path_114" class="st0" d="M463.4 739.6c9.9 0 18-8 18-18s-8-18-18-18-18 8-18 18c.1 10 8.1 18 18 18z"/><path id="_Path_115" class="st0" d="M486.7 702.7c10.9 0 19.8-8.9 19.7-19.8s-8.9-19.8-19.8-19.7c-10.9 0-19.7 8.9-19.7 19.8 0 10.8 8.8 19.7 19.8 19.7z"/><path id="_Path_116" class="st0" d="M536.4 647.6c0-11.9-9.6-21.6-21.6-21.6-11.9 0-21.6 9.6-21.6 21.6s9.6 21.6 21.6 21.6c12-.1 21.6-9.7 21.6-21.6z"/></g></g><g id="_Group_"><path id="_Path_117" class="st0" d="M1646 991.6c-22.9.1-45.6-4.5-66.7-13.5-20.3-8.7-38.7-21.2-54.3-36.8-15.5-15.8-27.9-34.3-36.5-54.7-18-42.8-18-91.1 0-133.9 17.2-41.2 49.7-74.1 90.7-91.7 42.9-18.4 91.5-18.4 134.3.2 20.6 9.1 39.2 22 55 38.1 3.5 3.6 6.1 7.9 7.6 12.6 1.9 5.7 1.1 12-2.2 17-3.7 5.7-10 9.3-16.8 9.5h-.2c-8 0-13.6-2.3-18.1-7-12.9-10.9-27.1-20.2-42.1-27.9-15.7-8.2-33.1-12.4-50.7-12.3-17-.1-33.9 3.4-49.6 10.2-15.1 6.6-28.8 16-40.4 27.8-11.5 11.9-20.6 25.8-27 41-13.3 31.7-13.3 67.4 0 99.1 12.7 30.6 36.9 55.1 67.4 68.2 15.6 6.8 32.5 10.2 49.5 10.2 17.8.1 35.5-3.5 51.8-10.6 15.7-6.9 29.8-16.9 41.4-29.5 3.6-4 8.4-6.8 13.6-8 1.7-.4 3.4-.6 5.1-.6 4 0 8 1.3 11.2 3.6 5.4 4.2 8.5 10.8 8.3 17.6 0 6.9-2.1 12.7-6.2 17.2-15.6 17.1-34.7 30.8-56 40.1-21.7 9.4-45.3 14.3-69.1 14.1z"/><path id="_Compound_Path_" class="st0" d="M2003.7 991.1c-22.9.1-45.6-4.5-66.7-13.4-40.9-17.4-73.4-49.9-90.8-90.8a173.3 173.3 0 0 1 0-133.4c8.7-20.3 21.1-38.7 36.6-54.5 15.5-15.6 33.9-28.1 54.2-36.8 42.6-18 90.7-18 133.4 0 41.1 17.4 73.8 50.2 91.3 91.3 18 42.6 18 90.7 0 133.4-8.6 20.3-21.1 38.7-36.8 54.3-15.7 15.4-34.2 27.8-54.5 36.5-21.1 8.9-43.8 13.5-66.7 13.4zm0-298.4c-17-.1-33.9 3.3-49.5 9.9-15.1 6.3-28.9 15.6-40.4 27.2-11.5 11.7-20.7 25.6-27.1 40.7a129.86 129.86 0 0 0 0 99.1c27.6 64.4 101.9 94.5 166.5 67.4 15.2-6.4 29-15.5 40.7-27.1 36.4-36.7 47.1-91.7 27.3-139.5-6.4-15.2-15.7-29-27.3-40.7-11.7-11.6-25.5-20.9-40.7-27.2-15.7-6.4-32.5-9.8-49.5-9.8z"/><path id="_Path_118" class="st0" d="M2478.1 992.1c-12.1 0-22-9.8-22-21.9V774c.1-11-2.1-21.8-6.5-31.9-8.6-19.9-24.5-35.8-44.4-44.3-20.3-8.7-43.4-8.7-63.7 0-9.8 4.2-18.6 10.3-26.1 17.9-7.5 7.7-13.5 16.6-17.7 26.5-4.3 10.1-6.5 20.9-6.5 31.9v196.1c0 12.2-9.9 22.1-22 22.1-12.2 0-22.1-9.9-22.1-22V774c-.1-16.9 3.3-33.7 9.8-49.2 6.3-15.1 15.5-28.8 27-40.3 11.5-11.6 25.2-20.8 40.2-27.2 31.4-13.6 67.1-13.5 98.5 0 30.3 12.9 54.5 37 67.5 67.3 6.7 15.6 10.2 32.3 10.1 49.3V970c.1 5.8-2.2 11.5-6.3 15.6-4.3 4.2-10 6.6-15.8 6.5z"/><path id="_Path_119" class="st0" d="M2694.6 992.1c-16.2.1-32.4-2.7-47.6-8.1-14.3-5.2-27.6-12.8-39.2-22.6-11.1-9.3-20.1-20.8-26.6-33.8-6.5-12.9-9.8-27.1-9.7-41.6 0-11.6 9.4-21 21-21s21 9.4 21 21c0 8.5 2 16.9 6 24.5 4.2 7.8 9.9 14.7 16.9 20.2 7.7 6 16.4 10.7 25.7 13.8 10.3 3.4 21.1 5.1 32 5.1 11 0 21.9-1.7 32.4-5.1 9.5-3.2 18.5-7.9 26.5-13.9 7.2-5.3 13.1-12.2 17.3-20.1 3.9-7.4 5.7-15.7 5.1-24-.6-8-3.2-15.7-7.4-22.4-4.6-7.4-10.5-13.9-17.4-19.3a98.5 98.5 0 0 0-24.8-14.2c-9.5-3.8-19.4-6.6-29.5-8.3-14.6-1-28.9-3.9-42.8-8.5-13-4.3-25.3-10.4-36.5-18.2-10.2-7-19-16.1-25.7-26.5-6.6-10.3-10.1-22.3-10-34.6-.1-12.2 3.2-24.3 9.3-34.9 6.4-10.9 15-20.3 25.2-27.7 11.2-8.1 23.6-14.4 36.7-18.5 29.1-9.1 60.2-9.1 89.3 0 13.1 4.2 25.5 10.4 36.7 18.5 10.2 7.4 18.8 16.9 25.2 27.7 6.2 10.6 9.5 22.6 9.4 34.9 0 12.1-9.8 22-21.9 22h-.1c-5.9.1-11.6-2.4-15.6-6.9-3.8-4.2-5.9-9.9-6.4-16.8-.4-5.4-2.3-10.6-5.6-14.8-4.2-5.5-9.3-10.2-15.2-13.8-7.2-4.4-15-7.8-23.1-9.9-9.1-2.5-18.5-3.7-27.9-3.7-9.7 0-19.4 1.2-28.8 3.7-8.1 2.1-15.9 5.4-23.1 9.9-5.9 3.8-10.9 8.7-14.8 14.5-3.4 4.8-5.2 10.5-5.2 16.4 0 5.4 2 10.3 6.3 14.9 5.1 5.5 11.1 10 17.7 13.5 7.7 4.1 15.8 7.5 24.2 10 8 2.5 16.2 4.4 24.5 5.5 15.9 1.7 31.5 5.6 46.3 11.5 13.8 5.5 26.6 13.1 38.1 22.5 10.8 8.9 19.6 19.9 25.9 32.3 6.3 12.5 9.5 26.3 9.4 40.3.1 14.5-3.3 28.8-9.7 41.8-6.4 13-15.4 24.6-26.6 33.9-24.5 20.1-55.2 31-86.9 30.8z"/><path id="_Path_120" class="st0" d="M2916.9 992.1c-12.1.1-22-9.7-22.1-21.9v-301c-.1-5.9 2.3-11.5 6.5-15.7 4.1-4.2 9.7-6.5 15.6-6.4h183.7c12.1-.1 21.9 9.7 22 21.8v.3c.1 5.8-2.2 11.5-6.4 15.5-4.1 4.2-9.7 6.5-15.6 6.4H2939v105.4h114.4c12.2 0 22.1 9.9 22.1 22 0 12.2-9.9 22.1-22 22.1h-114.4V948h161.6c12.1-.1 21.9 9.7 22 21.7v.3c.1 5.9-2.2 11.5-6.4 15.6-4.1 4.2-9.7 6.5-15.6 6.4l-183.8.1z"/><path id="_Path_121" class="st0" d="M3412.8 992.1c-12.2 0-22.1-9.8-22.1-21.9V774c.1-11-2.1-21.8-6.5-31.9-8.6-19.9-24.5-35.8-44.4-44.3-20.3-8.7-43.4-8.7-63.7 0-9.8 4.2-18.7 10.3-26.1 17.9-7.5 7.7-13.5 16.6-17.8 26.4-4.3 10.1-6.5 20.9-6.5 31.9v196.1c0 12.1-9.8 22-21.9 22h-.2c-5.8.1-11.5-2.2-15.6-6.4-4.2-4.1-6.5-9.8-6.4-15.6V774c-.1-50.8 30.2-96.8 77-116.7 31.5-13.5 67.2-13.5 98.6.1 15 6.4 28.6 15.6 40.2 27.1 11.5 11.6 20.8 25.2 27.2 40.2 6.7 15.6 10.2 32.3 10.1 49.3v196.1c.1 12.1-9.7 22-21.8 22h-.1z"/><path id="_Path_122" class="st0" d="M3629.4 992.1c-16.2.1-32.4-2.7-47.6-8.1-14.3-5.1-27.6-12.8-39.2-22.6-11.1-9.4-20.1-20.8-26.7-33.8-6.4-12.9-9.8-27.1-9.7-41.6 0-5.6 2.2-10.9 6.1-14.8 8.2-8.2 21.5-8.2 29.8 0 3.9 3.9 6.2 9.3 6.2 14.8 0 8.5 2 16.9 6 24.4 4.1 7.8 9.9 14.7 16.8 20.2 7.7 6 16.4 10.7 25.7 13.9 10.3 3.4 21.2 5.2 32.1 5.1 11 0 21.9-1.7 32.4-5.1 9.5-3.2 18.5-7.9 26.5-13.9 7.2-5.4 13.1-12.2 17.4-20.1 3.9-7.4 5.6-15.7 5-24-.6-8-3.2-15.6-7.4-22.4-4.6-7.4-10.5-13.9-17.3-19.3-7.5-5.9-15.8-10.7-24.8-14.1-9.5-3.8-19.4-6.6-29.5-8.3-14.5-1-28.9-3.9-42.7-8.5-13-4.2-25.3-10.4-36.6-18.2-10.2-7.1-18.9-16.1-25.7-26.5-6.6-10.3-10.1-22.3-10.1-34.6 0-12.2 3.2-24.3 9.3-34.9 6.4-10.9 15-20.3 25.2-27.7 11.2-8.1 23.5-14.4 36.7-18.5 29.1-9.1 60.2-9.1 89.3 0 13.2 4.2 25.6 10.4 36.7 18.5 10.2 7.4 18.8 16.9 25.2 27.7 6.2 10.6 9.4 22.6 9.4 34.9 0 5.9-2.3 11.5-6.5 15.6-4 4.2-9.7 6.5-15.5 6.4-6 .1-11.7-2.4-15.6-6.9-3.8-4.1-5.9-9.8-6.4-16.7-.4-5.4-2.3-10.6-5.7-14.8-4.2-5.5-9.3-10.2-15.2-13.8-7.2-4.4-14.9-7.8-23.1-9.9-9.1-2.5-18.5-3.8-28-3.7-9.7 0-19.4 1.2-28.8 3.7-8.1 2.1-15.9 5.4-23 9.9-5.9 3.8-10.9 8.7-14.8 14.5-3.4 4.8-5.2 10.5-5.2 16.4 0 5.4 2.1 10.3 6.2 14.9 5.1 5.5 11.1 10 17.8 13.5 7.7 4.1 15.8 7.5 24.2 10 8 2.5 16.1 4.3 24.4 5.5 15.9 1.7 31.5 5.6 46.3 11.5 13.8 5.5 26.7 13.1 38.2 22.5 10.7 8.9 19.5 19.8 25.8 32.2 6.3 12.5 9.6 26.3 9.5 40.4.1 14.5-3.3 28.8-9.7 41.8-6.4 13-15.5 24.5-26.7 33.9-24.3 19.9-55 30.8-86.7 30.6z"/><path id="_Path_123" class="st0" d="M3961.3 992.1c-12.1.1-22-9.7-22.1-21.8V858l-135.7-175.3c-3.6-4.4-5.3-10.1-4.8-15.9.4-5.8 3.2-11.1 7.8-14.7 4-3.3 9-5 14.2-5 7.6.5 12.7 3.3 16.5 8l124.2 159.6 126.5-159.6c3.6-4.6 9-7.5 14.8-7.9h.4c6.8 0 11.5 1.7 15.5 4.9 4.6 3.6 7.5 9 8 14.8.4 5.7-1.3 11.4-4.9 15.9L3983.4 858v112.1c.1 5.9-2.2 11.5-6.4 15.6-4.2 4.2-9.8 6.5-15.7 6.4z"/><path id="_Path_124" class="st0" d="M4292.6 992.1c-16.3.1-32.4-2.7-47.7-8.1-14.3-5.2-27.6-12.8-39.2-22.6-11-9.4-20.1-20.9-26.6-33.8-6.5-12.9-9.8-27.1-9.7-41.6 0-11.6 9.4-21 21-21 5.6 0 10.9 2.2 14.9 6.2 4 3.9 6.2 9.2 6.1 14.8 0 8.5 2 16.9 6 24.5 4.2 7.8 10 14.7 16.9 20.2 7.7 6 16.4 10.7 25.7 13.8 10.3 3.4 21.1 5.2 32 5.1 11 0 21.9-1.7 32.4-5.1 9.5-3.2 18.5-7.9 26.5-13.9 7.2-5.4 13.1-12.3 17.3-20.1 4-7.4 5.7-15.7 5-24-.7-7.9-3.2-15.6-7.4-22.4-4.7-7.4-10.5-13.9-17.4-19.3-7.5-5.9-15.9-10.7-24.8-14.1-9.5-3.8-19.4-6.6-29.5-8.3-14.6-1-28.9-3.9-42.7-8.5-13-4.2-25.3-10.4-36.6-18.2-10.2-7.1-18.9-16.1-25.6-26.5-6.6-10.3-10.1-22.3-10-34.6 0-12.2 3.2-24.3 9.3-34.9 6.4-10.9 15-20.3 25.2-27.7 11.2-8.1 23.5-14.4 36.7-18.5 29.1-9.1 60.3-9.1 89.3 0 13.1 4.2 25.5 10.4 36.6 18.6 10.3 7.4 18.9 16.8 25.3 27.7 6.1 10.6 9.4 22.6 9.4 34.9 0 12.2-9.9 22-22.1 22-5.9.1-11.6-2.4-15.5-6.9-3.8-4.1-6-9.8-6.5-16.8-.3-5.4-2.3-10.6-5.6-14.8-4.2-5.5-9.3-10.2-15.3-13.8-7.1-4.4-14.9-7.8-23-9.9-9.1-2.5-18.5-3.8-28-3.7-9.7 0-19.4 1.2-28.8 3.7-8.1 2.1-15.9 5.4-23 9.9-5.9 3.7-11 8.7-14.9 14.5-3.4 4.8-5.2 10.5-5.2 16.4 0 5.4 2 10.3 6.2 14.9 5.1 5.5 11.1 10 17.8 13.5 7.7 4.1 15.8 7.5 24.2 10 8 2.5 16.2 4.3 24.5 5.5 15.9 1.7 31.5 5.6 46.3 11.5 13.8 5.5 26.6 13.1 38.2 22.5 10.7 8.9 19.6 19.9 25.9 32.3 6.3 12.5 9.5 26.3 9.5 40.3 0 14.5-3.3 28.8-9.7 41.8-6.4 13-15.5 24.6-26.7 33.9-24.3 19.9-55.1 30.8-86.7 30.6z"/></g></svg>