<svg xmlns="http://www.w3.org/2000/svg" width="1024" height="355" viewBox="-1.773 -1.773 180.885 62.66"><path d="M165.845 37.481h-2.426c-.357 0-.745.25-.884.567l-3.882 8.933-4.256-8.945c-.143-.305-.554-.555-.902-.555l-2.556.004c-.321 0-.47.237-.331.527l6.25 13.073-3.271 7.452c-.148.316.025.576.37.576h2.462c.351 0 .748-.26.893-.576l8.908-20.49c.15-.315-.02-.565-.375-.565m-31.406 5.826c-.55-1.763-2.216-3.044-3.986-3.044a4.519 4.519 0 0 0-4.276 3.043h8.262zm3.284 1.866c0 .072 0 .239-.01.436-.011.239-.318.434-.67.434H126.22c.273 2.289 2.233 4.035 4.57 4.035 1.787 0 2.915-.72 3.848-1.664a.617.617 0 0 1 .881-.034l1.385 1.323c.259.24.286.661.055.91-.996 1.076-2.914 2.577-6.202 2.577-4.537 0-7.96-3.446-7.96-8.017 0-4.649 3.163-8.014 7.508-8.014 4.237 0 7.418 3.438 7.418 8.014m-19.591-30.041c-.564-1.757-2.217-3.045-3.997-3.045a4.524 4.524 0 0 0-4.266 3.045h8.263zm3.28 1.875c0 .067-.006.243-.006.436-.026.239-.33.426-.676.426h-10.82c.267 2.285 2.234 4.041 4.57 4.041 1.79 0 2.92-.716 3.848-1.67a.614.614 0 0 1 .881-.03l1.388 1.322c.25.243.28.658.04.913-.98 1.077-2.9 2.578-6.19 2.578-4.53 0-7.962-3.445-7.962-8.016 0-4.65 3.165-8.025 7.514-8.025 4.226 0 7.413 3.446 7.413 8.025m-2.8 13.263c-1.235 0-2.2.982-2.2 2.233 0 1.24.965 2.215 2.2 2.215 1.26 0 2.237-.975 2.237-2.215a2.244 2.244 0 0 0-2.237-2.233m23.777-21.265c-2.032 0-3.176.835-3.941 1.44v-.575c0-.316-.281-.57-.638-.57h-2.127a.623.623 0 0 0-.633.625v14.147c0 .352.28.63.633.63h2.226a.625.625 0 0 0 .631-.63v-9.775c.783-.927 1.777-1.99 3.732-1.99 1.13 0 1.9.51 2.572 1.38.443.57.835 1.308.835 3.32v7.065c0 .352.281.63.626.63h2.238a.62.62 0 0 0 .625-.63v-6.91c0-2.484-.33-4.23-1.383-5.575-1.357-1.733-3.177-2.582-5.396-2.582m20.719 6.127c-.559-1.757-2.216-3.045-3.994-3.045a4.54 4.54 0 0 0-4.272 3.045h8.266zm3.286 1.875c0 .067-.01.243-.021.436-.016.239-.311.426-.666.426h-10.82c.265 2.285 2.23 4.041 4.558 4.041 1.792 0 2.92-.716 3.853-1.67a.621.621 0 0 1 .887-.03l1.38 1.322c.26.243.28.658.06.913-.997 1.077-2.92 2.578-6.212 2.578-4.526 0-7.945-3.445-7.945-8.016 0-4.65 3.159-8.025 7.506-8.025 4.228 0 7.42 3.446 7.42 8.025M119.748 37.48h-2.228a.624.624 0 0 0-.64.618v14.144c0 .35.282.626.64.626h2.228a.623.623 0 0 0 .626-.626V38.099a.62.62 0 0 0-.626-.618m28.646.583c-.065-.234-.267-.583-.696-.583l-2.721.001V33.98a.636.636 0 0 0-.638-.63h-2.231a.63.63 0 0 0-.631.63v3.503h-2.524c-.541 0-.718.258-.63.627.089.368.33 1.92.33 1.92.071.276.282.622.63.622h2.194v6.594c0 1.839.42 3.185 1.268 4.132 1.058 1.192 2.572 1.828 4.404 1.828.218 0 .459-.005.688-.03.348-.018.632-.344.636-.684l.024-2.105c.005-.339-.272-.575-.62-.55-.23.02-.454.035-.638.035-.776 0-1.53-.289-1.88-.71-.327-.376-.382-.976-.382-1.751V40.65l3.495-.011c.322 0 .698-.13.582-.584l-.66-1.992zm28.316-25.595a.617.617 0 0 0 .628-.621V9.926a.617.617 0 0 0-.628-.625h-2.908V5.798a.636.636 0 0 0-.638-.63h-2.231a.63.63 0 0 0-.633.63V9.3h-2.522c-.541 0-.719.257-.63.625.089.37.33 1.922.33 1.922.071.275.282.62.63.62h2.192v6.595c0 1.838.422 3.186 1.27 4.133 1.057 1.19 2.572 1.828 4.403 1.828.219 0 .46-.006.689-.031.347-.017.632-.344.636-.684l.024-2.105c.005-.339-.272-.575-.62-.549a8.318 8.318 0 0 1-.638.034c-.777 0-1.531-.289-1.88-.71-.327-.375-.382-.975-.382-1.751v-6.759h2.908zm-62.436 36.56l-1.674-1.205c-.277-.201-.655-.141-.898.119-1.108 1.293-2.42 1.925-3.877 1.925-2.77 0-4.72-1.94-4.72-4.694 0-2.67 1.95-4.686 4.538-4.686 1.729 0 2.957.967 3.701 1.86.225.266.601.32.858.098l1.63-1.373c.268-.225.325-.637.103-.903-1.585-1.939-3.898-3.01-6.292-3.01-4.578 0-8.024 3.438-8.024 8.014 0 4.571 3.529 8.01 8.206 8.01 2.583 0 5.198-1.25 6.62-3.261.207-.284.108-.693-.17-.894m-37.29-6.891c-.887-.598-2.062-1.054-3.108-1.498-2.018-.852-3.802-1.551-3.802-3.151 0-1.668 1.5-2.566 3.085-2.566 1.097 0 2.194.372 3.25 1.047.27.173.607.173.817-.081l1.27-1.576a.576.576 0 0 0-.09-.82c-1.665-1.28-3.458-1.868-5.37-1.868-3.61 0-6.44 2.485-6.44 5.67 0 1.938.908 3.514 2.707 4.705.886.576 1.916 1.006 2.915 1.411 2.094.864 3.918 1.685 3.918 3.69 0 1.64-1.297 2.722-3.22 2.722-2.028 0-3.503-1.054-4.622-2.162-.232-.222-.56-.258-.797-.033l-1.5 1.49a.622.622 0 0 0-.039.853c1.911 2.134 4.415 3.213 7.113 3.213 3.812 0 6.582-2.586 6.582-6.166 0-2.027-.829-3.663-2.67-4.88m47.645-17.434h2.223c.348 0 .63-.279.63-.631v-9.43c.826-1.377 2.377-2.335 3.8-2.335.256 0 .516.018.772.05.339.05.608-.133.608-.487v-2.19c0-.349-.227-.662-.514-.68-.189-.007-.373-.019-.52-.019-1.925 0-3.385.772-4.238 1.635v-.69a.627.627 0 0 0-.632-.626h-2.129a.625.625 0 0 0-.636.625v14.146a.63.63 0 0 0 .636.632m-57.401 0h8.899a.627.627 0 0 0 .632-.632v-1.925a.63.63 0 0 0-.632-.636h-2.704V6.751h2.55a.63.63 0 0 0 .624-.632v-1.93a.626.626 0 0 0-.624-.63h-8.626a.634.634 0 0 0-.644.63v1.93a.64.64 0 0 0 .644.632h2.597v14.76h-2.716a.634.634 0 0 0-.631.636v1.925a.63.63 0 0 0 .63.632m15.847-.632v-9.775c.774-.926 1.78-1.99 3.736-1.99 1.14 0 1.923.49 2.562 1.38.485.66.84 1.31.84 3.32v7.065c0 .353.287.632.633.632h2.227a.632.632 0 0 0 .635-.632v-6.91c0-2.483-.464-4.116-1.518-5.453-1.351-1.73-3.081-2.727-5.291-2.727-2.038 0-3.124.86-3.918 1.464v-.575c0-.316-.285-.57-.626-.57h-2.132a.622.622 0 0 0-.633.625v14.146c0 .353.278.632.633.632h2.221a.627.627 0 0 0 .631-.632m11.081 21.1c0-2.668-1.912-4.69-4.47-4.69-2.54 0-4.457 2.022-4.457 4.69 0 2.677 1.917 4.69 4.456 4.69 2.559 0 4.471-2.013 4.471-4.69m3.493 0c0 4.573-3.428 8.012-7.964 8.012-4.531 0-7.95-3.44-7.95-8.012 0-4.575 3.419-8.012 7.95-8.012 4.536 0 7.964 3.437 7.964 8.012m5.836-20.148c-1.832 0-3.346-.638-4.404-1.828-.847-.947-1.268-2.295-1.268-4.134V12.47h-2.194c-.348 0-.559-.347-.629-.622 0 0-.241-1.552-.33-1.92-.089-.37.089-.626.629-.626h2.524V5.797c0-.347.28-.63.631-.63h2.232c.348 0 .637.283.637.63v3.504h3.448c.542 0 .72.256.63.625-.088.369-.33 1.921-.33 1.921-.07.275-.28.622-.63.622h-3.118v6.758c0 .777.055 1.377.382 1.752.35.42 1.104.71 1.88.71.184 0 .409-.015.638-.034.348-.026.625.21.62.549l-.024 2.105c-.004.34-.288.667-.636.683-.229.025-.47.032-.688.032M36.953 37.142h-2.356a.726.726 0 0 1-.733-.781 137.075 137.075 0 0 0 .236-9.394.772.772 0 0 1 .774-.782h2.348a.79.79 0 0 1 .79.782 140.87 140.87 0 0 1-.23 9.394.842.842 0 0 1-.83.781m-3.737 6.269a.916.916 0 0 1-.885.776H20.642a.91.91 0 0 1-.864-.702l-.534-2.443c-.081-.423.208-.768.64-.768H32.78c.433 0 .751.348.706.778a87.549 87.549 0 0 1-.27 2.36m-15.293 6.73a23.152 23.152 0 0 1-3.405-1.943c-.71-.495-1.485-1.59-1.728-2.42a52.008 52.008 0 0 1-1.139-4.737c-.082-.423.208-.768.64-.768h2.428c.431 0 .849.343.936.767.625 3.01 1.466 5.764 2.499 8.103.102.232.209.467.322.702.17.349-.195.465-.553.296M10.469 29.39a71.764 71.764 0 0 1 .455-9.399.904.904 0 0 1 .878-.776h2.392a.67.67 0 0 1 .681.776 67.1 67.1 0 0 0-.49 9.399.762.762 0 0 1-.766.782h-2.35a.802.802 0 0 1-.8-.782m18.846 3.84c.433 0 .772.35.753.782-.035.795-.076 1.579-.124 2.35a.847.847 0 0 1-.834.782H15.767a.914.914 0 0 1-.884-.777 66.85 66.85 0 0 1-.249-2.357.71.71 0 0 1 .72-.78h13.961zM18.573 19.995a.843.843 0 0 1 .831-.781h2.355c.433 0 .76.35.734.781a137.043 137.043 0 0 0-.235 9.394.774.774 0 0 1-.775.782h-2.35a.793.793 0 0 1-.79-.782 142.022 142.022 0 0 1 .23-9.394m4.297-4.691a91.98 91.98 0 0 1 .271-2.359.915.915 0 0 1 .885-.776h11.69a.91.91 0 0 1 .863.702l.532 2.443c.083.424-.206.769-.638.769H23.576a.695.695 0 0 1-.706-.78m15.565-9.09a23.152 23.152 0 0 1 3.405 1.945c.71.493 1.485 1.59 1.728 2.42a52.03 52.03 0 0 1 1.138 4.736c.083.424-.206.769-.638.769h-2.43c-.43 0-.847-.344-.935-.768-.625-3.01-1.467-5.765-2.5-8.102a21.641 21.641 0 0 0-.322-.703c-.168-.349.195-.465.554-.296m7.453 20.752a71.726 71.726 0 0 1-.455 9.399.904.904 0 0 1-.878.778h-2.392a.67.67 0 0 1-.682-.777 67.115 67.115 0 0 0 .491-9.398.763.763 0 0 1 .765-.783h2.35c.433 0 .793.35.8.781M27.04 23.128a.746.746 0 0 1-.751-.783c.035-.795.076-1.579.123-2.35a.846.846 0 0 1 .834-.781H40.59c.432 0 .831.346.885.776.096.776.178 1.563.248 2.356a.71.71 0 0 1-.72.782H27.04zm10.377 17.925a.88.88 0 0 1 .858-.78h15.359a28.062 28.062 0 0 0 2.722-12.096c0-1.723-.156-3.41-.452-5.05h-9.408a.86.86 0 0 1-.841-.78 67.013 67.013 0 0 0-.231-2.357.678.678 0 0 1 .688-.776H54.9C51.154 8.046 40.606 0 28.179 0c-.559 0-1.113.018-1.662.05-.742 1.251-1.586 3.371-2.342 6.793-.088.4-.174.81-.256 1.23a.985.985 0 0 1-.929.77h-2.41c-.432 0-.724-.346-.645-.77a65.32 65.32 0 0 1 .419-2.074c.451-2.043.962-3.805 1.537-5.294C14.92 2.294 8.931 6.47 4.99 12.169h13.525c.432 0 .737.347.684.776-.094.77-.18 1.556-.26 2.359a.879.879 0 0 1-.855.778H2.723A28.061 28.061 0 0 0 0 28.178c0 1.725.156 3.413.453 5.052H9.86c.433 0 .806.35.841.78.064.795.142 1.581.23 2.356a.677.677 0 0 1-.687.777H1.458C5.202 48.31 15.75 56.357 28.178 56.357c.558 0 1.11-.018 1.66-.05.742-1.251 1.587-3.371 2.343-6.793.088-.4.173-.81.255-1.23.084-.424.498-.77.929-.77h2.41c.433 0 .724.346.645.77-.131.716-.27 1.408-.417 2.075-.452 2.042-.964 3.803-1.538 5.293 6.973-1.588 12.96-5.765 16.903-11.463H37.843a.674.674 0 0 1-.685-.778 94.45 94.45 0 0 0 .26-2.357"/></svg>