<svg xmlns="http://www.w3.org/2000/svg" viewBox="0 0 255 255"><path d="M65.9 254.7c-26.6 0-50.6-16-60.8-40.6s-4.6-52.9 14.3-71.7l.5-.5L107 54.8 121.2 69l-87.5 87.6c-11.9 11.5-16.7 28.5-12.5 44.5 4.2 16 16.7 28.5 32.7 32.7s33-.6 44.5-12.4l8.4-8.4 14.2 14.2-8.4 8.5c-12.5 12.1-29.2 19-46.7 19z" fill="#e65125"/><path d="M185.9 121L98.3 33.4c-11.6-11.5-28.4-16-44.2-11.8S26 38.2 21.7 53.9c-4.2 15.8.3 32.6 11.8 44.2l8.4 8.4-14.2 14.2-8.4-8.4C2.7 95.7-3.8 71.4 2.3 48.7S26.1 8.2 48.8 2.2s47 .4 63.6 17l.5.5 87.2 87.1-14.2 14.2z" fill="#f9ba16"/><path d="M148.2 200.2L134 186.1l87.6-87.6c17.4-17.9 17.1-46.5-.5-64.2-17.7-17.7-46.2-17.9-64.2-.5l-8.4 8.4L134.3 28l8.4-8.4c16.6-16.6 40.9-23.1 63.6-17s40.5 23.8 46.5 46.5c6.1 22.7-.4 47-17 63.6l-87.6 87.5z" fill="#7ac6c0"/><path d="M189.2 255c-17.5.1-34.2-6.9-46.5-19.3l-87.6-87.6 14.2-14.2 87.6 87.6c17.9 17.9 46.8 17.9 64.7 0s17.9-46.8 0-64.7l-8.4-8.4 14.2-14.2 8.4 8.4c18.8 18.8 24.5 47.1 14.3 71.7-10.3 24.6-34.3 40.7-60.9 40.7z" fill="#39a9e0"/></svg>