<?xml version="1.0" encoding="utf-8"?>
<!-- Generator: Adobe Illustrator 24.3.0, SVG Export Plug-In . SVG Version: 6.00 Build 0)  -->
<svg version="1.1" id="Layer_1" xmlns:serif="http://www.serif.com/"
	 xmlns="http://www.w3.org/2000/svg" xmlns:xlink="http://www.w3.org/1999/xlink" x="0px" y="0px" viewBox="0 0 1500 1050"
	 style="enable-background:new 0 0 1500 1050;" xml:space="preserve">
<g id="Sahara">
	<path d="M158.7,517.8c17.6-15.3,26.5-33.9,26.5-55.8c0-21.9-6.4-39.5-19.1-52.6c-12.7-13.1-28.1-22.9-46.1-29.4
		c-18-6.5-36.2-13-54.4-19.7c-18.2-6.7-33.7-16.8-46.4-30.3S0,299.1,0,277.9c0-36.8,10.3-64.3,30.9-82.3s45.2-27,73.8-27
		c28.6,0,60,2.7,94.1,8.2v21.8c-30.6-5.5-59.2-8.2-85.8-8.2c-26.7,0-48.5,7.4-65.5,22.3c-17,14.9-25.6,35.9-25.6,62.9
		c0,23.5,12.1,41.2,36.4,52.9c11,5.5,23,10.6,36.2,15.3c13.1,4.7,26.4,10,39.7,15.9c13.3,5.9,25.4,12.8,36.2,20.9
		c10.8,8,19.6,19.2,26.5,33.5c6.9,14.3,10.3,31,10.3,50c0,19-4.4,35.8-13.2,50.3c-8.8,14.5-19.7,25.9-32.6,34.1
		c-12.9,8.2-28,14.9-45.3,20c-27.8,8.6-59.2,12.9-94.1,12.9H7.1v-21.8C76.8,559.5,127.4,545.6,158.7,517.8L158.7,517.8z"/>
	<path d="M437.4,286.1h21.8v294.5c-23.5,0-44.1-1-61.7-2.9s-36-6.2-55-12.6c-19-6.5-34.6-15.2-46.7-26.2c-12.1-11-22.1-26.2-30-45.6
		c-7.8-19.4-11.8-41.2-11.8-65.5c0-24.3,2.4-45.2,7.3-62.6c4.9-17.4,11.2-31.4,18.8-41.7c7.6-10.4,16.2-18.9,25.6-25.6
		c16.5-12.1,32.7-18.2,48.8-18.2c29.4,0,57,13.9,82.9,41.7L437.4,286.1L437.4,286.1z M275.7,424.9c0,51.3,15.9,87,47.6,107
		c28.2,17.6,66.2,26.5,114,26.5V350.8c-13.3-15.3-26.2-27.3-38.5-36.2c-12.3-8.8-26-13.2-40.9-13.2c-24.7,0-44.6,10.9-59.7,32.6
		C283.3,355.8,275.7,386.1,275.7,424.9z"/>
	<path d="M724.3,580.1l0.6-155.2c0-32.9-7.9-61.7-23.8-86.4c-15.9-24.7-35.4-37-58.5-37c-14.9,0-28.5,4.4-40.9,13.2
		c-12.3,8.8-25.2,20.9-38.5,36.2v229.3h-21.8V139.2h21.8v182.2c25.9-27.8,53.5-41.7,82.9-41.7c16.1,0,32.3,6.1,48.8,18.2
		c34.5,25.1,51.7,67.2,51.7,126.4L746,580.1H724.3L724.3,580.1z"/>
	<path d="M991.2,286.1h21.8v294.5c-23.5,0-44.1-1-61.7-2.9c-17.6-2-36-6.2-55-12.6c-19-6.5-34.6-15.2-46.7-26.2s-22.1-26.2-30-45.6
		c-7.8-19.4-11.8-41.2-11.8-65.5c0-24.3,2.4-45.2,7.3-62.6c4.9-17.4,11.2-31.4,18.8-41.7c7.6-10.4,16.2-18.9,25.6-25.6
		c16.5-12.1,32.7-18.2,48.8-18.2c29.4,0,57,13.9,82.9,41.7L991.2,286.1L991.2,286.1z M829.5,424.9c0,51.3,15.9,87,47.6,107
		c28.2,17.6,66.2,26.5,114,26.5V350.8c-13.3-15.3-26.2-27.3-38.5-36.2c-12.3-8.8-26-13.2-40.9-13.2c-24.7,0-44.6,10.9-59.7,32.6
		C837,355.8,829.5,386.1,829.5,424.9L829.5,424.9z"/>
	<path d="M1117,580.1h-21.8V286.1h21.8V329c8.2-9.8,20.9-20.3,37.9-31.5c17-11.2,33.3-16.8,48.8-16.8c15.5,0,29,4.4,40.6,13.2
		c11.6,8.8,17.5,23.2,17.9,43.2h-21.8c0-11-3.5-19.6-10.6-25.9c-7.1-6.3-16.7-9.4-28.8-9.4s-26.9,5.9-44.4,17.6
		c-17.4,11.8-30.7,24.7-39.7,38.8L1117,580.1L1117,580.1z"/>
	<path d="M1475.6,286.1h21.8v294.5c-23.5,0-44.1-1-61.7-2.9c-17.6-2-36-6.2-55-12.6c-19-6.5-34.6-15.2-46.7-26.2
		c-12.1-11-22.1-26.2-30-45.6c-7.8-19.4-11.8-41.2-11.8-65.5c0-24.3,2.4-45.2,7.3-62.6c4.9-17.4,11.2-31.4,18.8-41.7
		c7.6-10.4,16.2-18.9,25.6-25.6c16.5-12.1,32.7-18.2,48.8-18.2c29.4,0,57,13.9,82.9,41.7L1475.6,286.1L1475.6,286.1z M1313.9,424.9
		c0,51.3,15.9,87,47.6,107c28.2,17.6,66.2,26.5,114,26.5V350.8c-13.3-15.3-26.2-27.3-38.5-36.2c-12.3-8.8-26-13.2-40.9-13.2
		c-24.7,0-44.6,10.9-59.7,32.6C1321.5,355.8,1313.9,386.1,1313.9,424.9z"/>
</g>
<g>
	<path d="M0,910.4c26.4-22.2,54.5-42.9,84-62c29.6-19.2,60.4-37,92.4-53.3c63.9-33.1,132.8-58.6,204.7-75.7
		c72.6-17.4,148.3-22.9,223.3-16.1c9.4,0.8,18.7,2,28.1,3.3c4.7,0.7,9.3,1.5,13.9,2.3c4.6,0.8,9.3,1.5,13.9,2.5
		c18.4,3.5,36.6,7.9,54.5,13c35.7,10.3,70.1,23.7,102.8,39.8l12.2,6.2c4,2.1,8,4.4,11.9,6.5l23.2,12.9c15.3,8.4,30.8,16.4,46.7,24
		c31.7,15,64.7,28.1,98.7,39c67.6,21.8,139.9,34.1,211.9,31c35.9-1.4,71.4-7.6,105.1-18.2c33.8-10.6,64.7-27.1,90.8-48.4
		c26.1-21.6,46.5-47.8,59.6-76.9c6.7-14.6,11.8-29.8,15.2-45.2c3.6-15.5,5.8-31.3,6.5-47.1c0.7,15.9-0.1,31.9-2.3,47.7
		c-2.4,16-6.5,31.7-12.3,47c-11.8,30.8-31.5,59-57.5,82.5c-26.5,23.4-58.4,41.9-93.6,54.4c-35.1,12.3-72.2,19.8-109.9,22.1
		c-37.6,2.5-75.5,1.1-112.8-4.2c-37.1-5.2-73.6-13.3-109.1-24.3c-35.3-10.9-69.7-24.2-102.6-39.6c-16.4-7.7-32.6-15.9-48.4-24.5
		L827.6,796c-3.8-2-7.6-4.2-11.5-6.2l-11.7-5.9c-31.1-15.6-64-28.6-98.1-38.7c-34.1-10-69.3-16.9-105-20.8
		c-8.8-1.1-17.9-1.7-26.8-2.4c-8.9-0.8-18-1-27-1.1c-18-0.5-36.1-0.1-54.1,1c-9.1,0.5-18,1.4-27,2.1c-9,0.8-17.9,2-26.9,3.2
		c-17.9,2.4-35.8,5.4-53.4,9.1c-17.6,3.7-35.2,7.9-52.5,12.7c-17.3,4.8-34.5,10.1-51.5,15.8c-34,11.5-67.2,24.8-99.4,39.7
		c-32.4,14.8-63.9,31.1-94.3,48.8c-15.3,8.8-30.3,17.8-45,27.4C28.5,890.5,13.9,900,0,910.4L0,910.4z"/>
	<path d="M817.7,670.6c23.8,14.9,48.8,28.4,74.8,40.5c12.9,6.1,26,11.8,39.2,17.1c13.2,5.3,26.4,10.4,40.2,15.1
		c13.8,4.7,27.3,8.7,41.1,12.8s27.8,7.6,41.9,10.4c28.1,6.3,56.7,10.7,85.6,13.2c14.4,1.2,28.8,2.3,43.3,2.6
		c14.4,0.5,28.8,0.3,43.2-0.6c28.4-1.1,56.4-6.5,82.8-15.8c26.1-9.4,48.2-25.6,63-46.4c7.4-10.6,12.9-22.1,16.3-34.1
		c1.8-6.1,3.1-12.4,3.9-18.7c1-6.3,1.3-12.6,1-18.9c5.6,25.8,1.5,52.4-11.5,76.1c-6.9,12-16,22.9-27.2,32.3
		c-11.2,9.3-24.1,17.1-38,23.1c-13.8,6-28.3,10.6-43.4,13.7c-14.8,3.2-29.9,5.4-45.2,6.6c-15.1,1.1-30.2,1.5-45.4,1.1
		c-7.6,0-15.1-0.4-22.6-0.7c-7.5-0.3-15-0.9-22.6-1.6c-59.9-5.6-118.3-19.7-172.9-41.6c-27.1-10.9-53.3-23.5-78.1-37.9
		C862.1,704.8,838.9,688.6,817.7,670.6L817.7,670.6z"/>
</g>
</svg>
