<svg xmlns="http://www.w3.org/2000/svg" viewBox="0 0 300 306"><style>.st1{fill:#546979}</style><path d="M135.6 202.7V98.3c0-2.2-1-4.3-2.8-5.6L11.5 1.4C6.9-2.1.3 1.2.3 7v195.7c0 3.9 3.1 7 7 7s7-3.1 7-7V7L3.1 12.6l121.3 91.2-2.8-5.6v104.5c0 3.9 3.1 7 7 7 3.9.1 7-3.1 7-7z" fill="#1abc9c"/><path class="st1" d="M172.9 202.7V98.3l-2.8 5.6 121.3-91.2L280.2 7v195.7c0 3.9 3.1 7 7 7s7-3.1 7-7V7c0-5.8-6.6-9.1-11.2-5.6L161.7 92.7c-1.8 1.3-2.8 3.4-2.8 5.6v104.5c0 3.9 3.1 7 7 7s7-3.2 7-7.1zM4.9 257.9l22 36.3.2.2.2.2.2.2c.1.1.2.1.2.2.1.1.2.1.1 0h.1c.1.1.2.1.2.1.1 0 .1.1.2.1h.4c.2.1.3.1.5 0h.4c.1 0 .1-.1.2-.1s.2-.1.2-.1c.1-.1.2-.1.1 0s-.1 0 .1 0l.2-.2.2-.2.2-.2c0-.1.1-.1.2-.2l22-36.3v44.9c0 .7.2 1.3.7 1.8.5.5 1.1.7 1.7.7.7 0 1.3-.2 1.7-.7.5-.5.7-1.1.7-1.8v-53.7c0-1.2-.6-2-1.8-2.3-1.2-.3-2.1 0-2.7 1.1L29 288.2 4.6 247.9c-.7-1.1-1.6-1.4-2.7-1.1-1.2.3-1.8 1.1-1.8 2.3v53.7c0 .7.2 1.3.7 1.8.5.5 1.1.7 1.8.7s1.2-.2 1.7-.7c.5-.5.7-1.1.7-1.8l-.1-44.9zm84.6 28.7l13-31.2 13 31.2h-26zm-9.4 18.7c1.1 0 1.8-.5 2.3-1.5l5.1-12.2h29.9l5.1 12.2c.4 1 1.2 1.5 2.3 1.5.3 0 .6-.1.9-.2.6-.2 1.1-.7 1.3-1.3.3-.6.3-1.3 0-1.9l-5.7-13.7-16.6-40c-.1-.2-.1-.3-.2-.4 0 0-.1 0-.2-.2l-.2-.2-.2-.2-.2-.1c-.3-.2-.6-.3-.9-.4H102c-.3.1-.6.2-.9.4l-.2.1c-.1.1-.2.1-.2.2l-.2.2-.2.2c-.1.1-.1.3-.2.4l-16.6 40-5.7 13.7c-.3.6-.3 1.3 0 1.9.2.6.7 1.1 1.3 1.3.4.1.7.2 1 .2zm69.3-1.2c.5-.5.7-1 .7-1.7v-15.6l7.3-7.7 24.2 25.5c.5.5 1.1.7 1.8.7s1.2-.2 1.7-.7c.5-.5.8-1 .8-1.7s-.2-1.3-.7-1.7l-24.4-25.6 23.6-24.7c.5-.5.7-1.1.7-1.8s-.2-1.2-.7-1.7c-.5-.5-1.1-.7-1.8-.7s-1.2.3-1.7.8l-30.7 32.3V249c0-.7-.2-1.2-.7-1.7-.5-.5-1.1-.7-1.7-.7-.7 0-1.2.2-1.7.7-.5.5-.7 1.1-.7 1.7v53.5c0 .7.2 1.3.7 1.7.5.5 1.1.7 1.7.7.6 0 1.1-.3 1.6-.8zm90.4 1.2c.7 0 1.3-.2 1.7-.7.5-.5.7-1 .7-1.7s-.2-1.3-.7-1.7c-.4-.5-1.1-.7-1.7-.7h-30.1v-22h22.5c.7 0 1.3-.2 1.7-.7.5-.5.7-1 .7-1.7s-.2-1.3-.7-1.7c-.4-.5-1.1-.8-1.7-.7h-22.5v-22l30.1.1c.7 0 1.3-.2 1.7-.7.5-.5.7-1.1.7-1.8s-.2-1.2-.7-1.7c-.4-.5-1.1-.7-1.7-.7l-32.6-.1c-.7 0-1.2.2-1.7.7-.5.5-.7 1-.7 1.7v53.9c0 .7.2 1.3.7 1.7.5.5 1 .7 1.7.7h32.6v-.2zm51.8-35.2c-2.3 2.1-5.2 3.2-8.5 3.3h-16.4v-21.9h16.1c3.4 0 6.3 1.1 8.7 3.2 2.4 2.1 3.6 4.7 3.6 7.7.1 3-1.1 5.6-3.5 7.7zm-27.3-23.5c-.7 0-1.2.2-1.7.7-.5.5-.7 1.1-.7 1.7v53.4c0 .7.2 1.2.7 1.7.5.5 1.1.7 1.7.7.7 0 1.3-.2 1.7-.7.5-.5.7-1.1.7-1.7v-24.2h13.7l12.7 25.7c.4.9 1.2 1.4 2.2 1.4.4 0 .7-.1 1.1-.2.6-.3 1-.8 1.2-1.4.2-.6.2-1.2-.1-1.8L285.8 278c4.1-.6 7.5-2.4 10.1-5.3 2.7-2.9 4.1-6.4 4.1-10.2 0-4.4-1.7-8.1-5-11.2-3.4-3.1-7.4-4.6-12.1-4.6l-18.6-.1z"/></svg>